<svg width="29" height="20" viewBox="0 0 29 20" fill="none" xmlns="http://www.w3.org/2000/svg">
<path d="M0 18.5714C0 19.3603 0.649328 20 1.45 20H27.55C28.3507 20 29 19.3603 29 18.5714V4.28571H0V18.5714ZM20.3 9.28571C20.3 8.89107 20.6244 8.57143 21.025 8.57143H25.375C25.7756 8.57143 26.1 8.89107 26.1 9.28571V10.7143C26.1 11.1089 25.7756 11.4286 25.375 11.4286H21.025C20.6244 11.4286 20.3 11.1089 20.3 10.7143V9.28571ZM20.3 14.6429C20.3 14.4455 20.4622 14.2857 20.6625 14.2857H25.7375C25.9378 14.2857 26.1 14.4455 26.1 14.6429V15.3571C26.1 15.5545 25.9378 15.7143 25.7375 15.7143H20.6625C20.4622 15.7143 20.3 15.5545 20.3 15.3571V14.6429ZM2.9 10.3571C2.9 10.1598 3.06222 10 3.2625 10H17.0375C17.2378 10 17.4 10.1598 17.4 10.3571V11.0714C17.4 11.2687 17.2378 11.4286 17.0375 11.4286H3.2625C3.06222 11.4286 2.9 11.2687 2.9 11.0714V10.3571ZM2.9 14.6429C2.9 14.4455 3.06222 14.2857 3.2625 14.2857H11.2375C11.4378 14.2857 11.6 14.4455 11.6 14.6429V15.3571C11.6 15.5545 11.4378 15.7143 11.2375 15.7143H3.2625C3.06222 15.7143 2.9 15.5545 2.9 15.3571V14.6429ZM28.275 0H0.725C0.324437 0 0 0.319643 0 0.714286V2.85714H29V0.714286C29 0.319643 28.6756 0 28.275 0Z" fill="#FF814B"/>
</svg>
