<svg width="21" height="24" viewBox="0 0 21 24" fill="none" xmlns="http://www.w3.org/2000/svg">
<path d="M10.5 10.2857C11.8923 10.2857 13.2275 9.74388 14.212 8.77941C15.1965 7.81493 15.7496 6.50683 15.7496 5.14286C15.7496 3.77889 15.1965 2.47078 14.212 1.50631C13.2275 0.541835 11.8923 0 10.5 0C9.10772 0 7.77247 0.541835 6.78798 1.50631C5.80349 2.47078 5.25041 3.77889 5.25041 5.14286C5.25041 6.50683 5.80349 7.81493 6.78798 8.77941C7.77247 9.74388 9.10772 10.2857 10.5 10.2857ZM4.37548 24C3.51013 24.0002 2.66418 23.7489 1.94462 23.278C1.22506 22.8071 0.664224 22.1377 0.333049 21.3545C0.0018744 20.5713 -0.0847604 19.7094 0.0841043 18.878C0.252969 18.0465 0.669746 17.2828 1.28172 16.6834C2.31414 15.6943 5.60038 13.7143 10.5 13.7143C15.3996 13.7143 18.6859 15.6943 19.7183 16.6834C20.3303 17.2828 20.747 18.0465 20.9159 18.878C21.0848 19.7094 20.9981 20.5713 20.667 21.3545C20.3358 22.1377 19.7749 22.8071 19.0554 23.278C18.3358 23.7489 17.4899 24.0002 16.6245 24H4.37548Z" fill="#FF814B"/>
</svg>
