<svg width="24" height="27" viewBox="0 0 24 27" fill="none" xmlns="http://www.w3.org/2000/svg">
<path d="M21.4732 26.4286H1.65179C1.20443 26.4286 0.81729 26.2694 0.490374 25.9511C0.163458 25.6328 0 25.2413 0 24.7768V1.67759C0 1.21303 0.163458 0.821591 0.490374 0.503278C0.81729 0.184966 1.20443 0.0258091 1.65179 0.0258091H13.2143V9.11063C13.2143 9.33431 13.296 9.52788 13.4595 9.69133C13.6229 9.85479 13.8165 9.93652 14.0402 9.93652H23.125V24.7768C23.125 25.2413 22.9658 25.6328 22.6475 25.9511C22.3292 26.2694 21.9378 26.4286 21.4732 26.4286ZM18.9955 21.4732H18.1696V15.692C18.1696 15.4683 18.0879 15.2747 17.9245 15.1113C17.761 14.9478 17.5674 14.8661 17.3437 14.8661H15.692C15.4683 14.8661 15.2747 14.9478 15.1113 15.1113C14.9478 15.2747 14.8661 15.4683 14.8661 15.692V21.4732H13.2143V12.3884C13.2143 12.1647 13.1326 11.9711 12.9691 11.8077C12.8056 11.6442 12.6121 11.5625 12.3884 11.5625H10.7366C10.5129 11.5625 10.3194 11.6442 10.1559 11.8077C9.99244 11.9711 9.91071 12.1647 9.91071 12.3884V21.4732H8.25893V17.3437C8.25893 17.1201 8.1772 16.9265 8.01374 16.763C7.85028 16.5996 7.65671 16.5179 7.43303 16.5179H5.78125C5.55757 16.5179 5.364 16.5996 5.20054 16.763C5.03709 16.9265 4.95536 17.1201 4.95536 17.3437V21.4732H4.12946C3.90578 21.4732 3.71222 21.5549 3.54876 21.7184C3.3853 21.8819 3.30357 22.0754 3.30357 22.2991C3.30357 22.5228 3.3853 22.7164 3.54876 22.8798C3.71222 23.0433 3.90578 23.125 4.12946 23.125H18.9955C19.2364 23.125 19.4343 23.0433 19.5891 22.8798C19.744 22.7164 19.8214 22.5228 19.8214 22.2991C19.8214 22.0754 19.7397 21.8819 19.5762 21.7184C19.4128 21.5549 19.2192 21.4732 18.9955 21.4732ZM14.8661 0C15.3134 0 15.692 0.154855 16.0017 0.464565L22.6346 7.09752C22.9615 7.42443 23.125 7.82017 23.125 8.28474H14.8661V0Z" fill="#FF814B"/>
</svg>
