<svg width="22" height="23" viewBox="0 0 22 23" fill="none" xmlns="http://www.w3.org/2000/svg">
<path d="M0.0329064 7.9589C0.533588 6.41366 1.35836 4.99524 2.44663 3.79316C2.63065 3.58989 2.91936 3.51743 3.17785 3.60968L5.7786 4.53765C6.48369 4.78911 7.25954 4.42254 7.51151 3.7189C7.53628 3.64971 7.55537 3.57863 7.56855 3.50647L8.06403 0.792461C8.11329 0.522619 8.32097 0.309166 8.58981 0.252049C9.37642 0.084975 10.1829 0 11 0C11.8166 0 12.6226 0.0848791 13.4087 0.251742C13.6775 0.308801 13.8852 0.522121 13.9345 0.791867L14.4314 3.50635C14.5658 4.24143 15.2717 4.72865 16.0084 4.59462C16.0809 4.58142 16.1521 4.56239 16.2213 4.53769L18.8221 3.60968C19.0806 3.51743 19.3692 3.58989 19.5533 3.79316C20.6416 4.99524 21.4663 6.41366 21.9672 7.9589C22.0515 8.21957 21.97 8.50537 21.7607 8.68268L19.6528 10.4687C19.0821 10.9523 19.0123 11.8061 19.4968 12.3757C19.5445 12.4317 19.5967 12.4837 19.6528 12.5313L21.7607 14.3173C21.97 14.4946 22.0515 14.7804 21.9672 15.0411C21.4663 16.5864 20.6416 18.0048 19.5533 19.2068C19.3692 19.41 19.0806 19.4825 18.8221 19.3903L16.2213 18.4623C15.5164 18.2109 14.7405 18.5775 14.4885 19.281C14.4637 19.3502 14.4446 19.4213 14.4314 19.4938L13.9345 22.2082C13.8852 22.4779 13.6775 22.6911 13.4087 22.7483C12.6226 22.9151 11.8166 23 11 23C10.1829 23 9.37642 22.9151 8.58981 22.7479C8.32097 22.6907 8.11329 22.4773 8.06403 22.2076L7.56857 19.4936C7.43424 18.7585 6.72821 18.2713 5.99159 18.4054C5.91915 18.4186 5.84792 18.4376 5.77871 18.4623L3.17785 19.3903C2.91936 19.4825 2.63065 19.41 2.44663 19.2068C1.35836 18.0048 0.533588 16.5864 0.0329064 15.0411C-0.0515544 14.7804 0.0298834 14.4946 0.239189 14.3173L2.34717 12.5313C2.91793 12.0477 2.98773 11.1939 2.5031 10.6243C2.45545 10.5683 2.4033 10.5162 2.34719 10.4687L0.239189 8.68268C0.0298834 8.50537 -0.0515544 8.21957 0.0329064 7.9589ZM7.65194 11.4999C7.65194 13.353 9.15081 14.8552 10.9998 14.8552C12.8487 14.8552 14.3476 13.353 14.3476 11.4999C14.3476 9.6468 12.8487 8.14459 10.9998 8.14459C9.15081 8.14459 7.65194 9.6468 7.65194 11.4999Z" fill="#FF814B"/>
</svg>
